HIERARCHY
ROOT Hips
{
    OFFSET 0.000000 0.000000 0.000000
    CHANNELS 6 Xposition Yposition Zposition Zrotation Xrotation Yrotation
    JOINT Spine
    {
        OFFSET -0.000000 14.517291 0.000000
        CHANNELS 3 Zrotation Xrotation Yrotation
        JOINT Spine1
        {
            OFFSET -0.000000 37.558300 0.000000
            CHANNELS 3 Zrotation Xrotation Yrotation
            JOINT Neck
            {
                OFFSET -0.000000 37.404057 3.400369
                CHANNELS 3 Zrotation Xrotation Yrotation
                JOINT Head
                {
                    OFFSET -0.000000 24.785618 -3.540803
                    CHANNELS 3 Zrotation Xrotation Yrotation
                    End Site
                    {
                        OFFSET -0.000000 35.408028 0.000000
                    }
                }
            }
            JOINT LeftShoulder
            {
                OFFSET 6.992933 33.973492 -0.192664
                CHANNELS 3 Zrotation Xrotation Yrotation
                JOINT LeftArm
                {
                    OFFSET 21.527611 0.000000 0.000000
                    CHANNELS 3 Zrotation Xrotation Yrotation
                    JOINT LeftForeArm
                    {
                        OFFSET 56.353916 0.000000 0.000000
                        CHANNELS 3 Zrotation Xrotation Yrotation
                        JOINT LeftHand
                        {
                            OFFSET 47.774071 0.000000 0.000000
                            CHANNELS 3 Zrotation Xrotation Yrotation
                            End Site
                            {
                                OFFSET 26.556021 0.000000 0.000000
                            }
                        }
                    }
                }
            }
            JOINT RightShoulder
            {
                OFFSET -7.065357 33.973492 -0.192664
                CHANNELS 3 Zrotation Xrotation Yrotation
                JOINT RightArm
                {
                    OFFSET -21.527611 0.000000 0.000000
                    CHANNELS 3 Zrotation Xrotation Yrotation
                    JOINT RightForeArm
                    {
                        OFFSET -56.353916 0.000000 0.000000
                        CHANNELS 3 Zrotation Xrotation Yrotation
                        JOINT RightHand
                        {
                            OFFSET -47.774071 0.000000 0.000000
                            CHANNELS 3 Zrotation Xrotation Yrotation
                            End Site
                            {
                                OFFSET -26.556021 0.000000 0.000000
                            }
                        }
                    }
                }
            }
        }
    }
    JOINT LeftUpLeg
    {
        OFFSET 17.704014 0.000000 0.000000
        CHANNELS 3 Zrotation Xrotation Yrotation
        JOINT LeftLeg
        {
            OFFSET -0.000000 -81.181816 0.000000
            CHANNELS 3 Zrotation Xrotation Yrotation
            JOINT LeftFoot
            {
                OFFSET -0.000000 -62.821102 0.000000
                CHANNELS 3 Zrotation Xrotation Yrotation
                JOINT LeftToeBase
                {
                    OFFSET -0.000000 -11.507608 26.556021
                    CHANNELS 3 Zrotation Xrotation Yrotation
                    End Site
                    {
                        OFFSET -0.000000 0.000000 7.081605
                    }
                }
            }
        }
    }
    JOINT RightUpLeg
    {
        OFFSET -17.704014 0.000000 0.000000
        CHANNELS 3 Zrotation Xrotation Yrotation
        JOINT RightLeg
        {
            OFFSET -0.000000 -81.181816 0.000000
            CHANNELS 3 Zrotation Xrotation Yrotation
            JOINT RightFoot
            {
                OFFSET -0.000000 -62.821102 0.000000
                CHANNELS 3 Zrotation Xrotation Yrotation
                JOINT RightToeBase
                {
                    OFFSET -0.000000 -11.507608 26.556021
                    CHANNELS 3 Zrotation Xrotation Yrotation
                    End Site
                    {
                        OFFSET -0.000000 0.000000 7.081605
                    }
                }
            }
        }
    }
}
MOTION
Frames:    12
Frame Time:    0.008333
-1.397682    155.378052    -29.810493    0.399004    -3.604330    -26.317024    1.988894    -1.349053    2.902617    -0.110847    1.722472    0.960745    9.749751    1.087679    11.103743    -4.139260    1.210678    9.657458    -2.131770    7.424990    -8.550511    -43.973461    17.825190    -36.265533    46.198845    -50.502937    -41.925186    -5.231083    -36.487434    -12.274607    -6.071888    6.969824    -2.743725    38.119255    12.987102    73.211281    3.687396    -11.501580    100.113144    8.428440    -14.828192    13.368903    14.873046    -19.690804    -1.153582    -14.457632    21.398565    6.811855    -5.845174    1.441261    22.045776    0.000000    0.000000    0.000000    -11.417524    7.582597    -5.427509    7.863302    27.105165    1.072853    1.622619    -26.961565    -20.715742    0.000000    0.000000    0.000000    
-1.399398    155.380981    -29.809418    0.396412    -3.603542    -26.319508    2.186728    -0.715080    2.986064    -0.806592    0.535086    0.994079    10.707992    1.508429    11.076442    -4.571281    1.415806    9.486732    -1.775385    7.940252    -8.792506    -44.414848    17.517603    -36.121979    45.116413    -50.267986    -43.204994    -5.284359    -36.081692    -12.307663    -5.057289    7.246174    -2.677668    38.024223    12.951158    72.590874    3.939873    -10.935775    100.334496    8.291706    -14.597261    13.351165    14.875730    -19.685061    -1.156545    -14.455104    21.389868    6.804677    -5.853881    1.435475    22.054474    0.000000    0.000000    0.000000    -11.413934    7.582388    -5.441406    7.854236    27.104738    1.076568    1.627774    -26.952000    -20.705761    0.000000    0.000000    0.000000    
-1.398597    155.384857    -29.810106    0.403944    -3.599852    -26.329124    1.982983    -1.353217    2.888821    -0.109694    1.711478    0.956105    9.796942    1.075816    11.126552    -4.152690    1.231416    9.672571    -2.099854    7.450650    -8.604036    -44.007595    18.165195    -36.506660    45.691349    -50.535339    -42.626698    -5.112509    -36.453560    -12.108414    -6.056110    6.968626    -2.732042    38.101559    12.991317    73.210289    3.672748    -11.515371    100.106865    8.427006    -14.824955    13.359171    14.872844    -19.680368    -1.149945    -14.451023    21.373909    6.793739    -5.856407    1.444776    22.064032    0.000000    0.000000    0.000000    -11.421355    7.569093    -5.447978    7.846705    27.110470    1.082260    1.648223    -26.948565    -20.693787    0.000000    0.000000    0.000000    
-1.396435    155.384491    -29.810242    0.407266    -3.597568    -26.332460    2.176862    -0.730472    2.968018    -0.806616    0.542090    0.988018    10.749292    1.494851    11.099051    -4.577348    1.426083    9.502968    -1.737762    7.932573    -8.847934    -44.464935    17.900684    -36.317974    44.743069    -50.287262    -43.789494    -5.252123    -36.025753    -12.180835    -5.044588    7.227281    -2.640914    38.012890    12.951927    72.571396    3.927563    -10.943696    100.340218    8.273357    -14.593201    13.350017    14.872877    -19.682590    -1.152189    -14.460590    21.375013    6.802080    -5.857269    1.431911    22.070339    0.000000    0.000000    0.000000    -11.423147    7.561281    -5.465396    7.837368    27.117134    1.083162    1.650797    -26.946510    -20.675772    0.000000    0.000000    0.000000    
-1.395512    155.383896    -29.802101    0.410300    -3.609900    -26.338528    2.172631    -0.730321    2.959821    -0.807574    0.557530    0.985403    10.750416    1.481347    11.111763    -4.562740    1.428177    9.516728    -1.726263    7.933322    -8.871448    -44.475178    18.094584    -36.432030    44.514782    -50.334099    -44.111294    -4.962165    -36.078064    -12.009228    -5.042058    7.215157    -2.638899    38.007767    12.964964    72.580048    3.928456    -10.955015    100.338531    8.294560    -14.601675    13.365292    14.865934    -19.663502    -1.153683    -14.467821    21.366056    6.802422    -5.851087    1.426531    22.073650    0.000000    0.000000    0.000000    -11.437269    7.568755    -5.441896    7.852168    27.119995    1.060176    1.661435    -26.953625    -20.670919    0.000000    0.000000    0.000000    
-1.396343    155.385574    -29.804104    0.414081    -3.613934    -26.342272    1.977374    -1.363391    2.857761    -0.129058    1.747440    0.945991    9.859093    1.046191    11.165195    -4.166865    1.235693    9.699807    -2.037661    7.451008    -8.661594    -44.053970    18.705357    -36.868038    45.252617    -50.589268    -43.332439    -5.219036    -36.402634    -11.989418    -6.041414    6.943951    -2.703670    38.090481    12.995275    73.226433    3.666859    -11.521555    100.103905    8.439173    -14.820567    13.386878    14.862326    -19.658331    -1.157778    -14.468275    21.359461    6.828645    -5.840546    1.435385    22.047377    0.000000    0.000000    0.000000    -11.443054    7.564143    -5.427435    7.862940    27.125231    1.056845    1.642834    -26.952950    -20.703854    0.000000    0.000000    0.000000    
-1.398787    155.387253    -29.807463    0.414806    -3.616707    -26.342724    2.157614    -0.731496    2.943718    -0.799688    0.563473    0.980046    10.764215    1.478178    11.122149    -4.538510    1.421328    9.528214    -1.698763    7.968742    -8.910499    -44.482334    18.382225    -36.720234    44.134842    -50.343163    -44.604401    -4.835591    -36.062775    -11.805113    -5.040545    7.216510    -2.618335    38.000973    12.961032    72.589081    3.913278    -10.960783    100.335922    8.297649    -14.589767    13.360198    14.860297    -19.652134    -1.158218    -14.461213    21.350264    6.820825    -5.840339    1.448721    22.039597    0.000000    0.000000    0.000000    -11.439541    7.561047    -5.405324    7.866107    27.132330    1.043167    1.658075    -26.959833    -20.721405    0.000000    0.000000    0.000000    
-1.399146    155.385452    -29.808134    0.418271    -3.620359    -26.341576    1.992468    -1.370440    2.837362    -0.180622    1.757220    0.939913    9.902004    1.046062    11.177302    -4.136866    1.234342    9.710246    -1.977861    7.484302    -8.694419    -44.051624    18.989986    -37.154190    44.820236    -50.583485    -43.866856    -4.888556    -36.387245    -11.730487    -5.996284    6.950972    -2.673284    38.061249    13.001434    73.234764    3.638475    -11.560097    100.098923    8.453477    -14.823088    13.397794    14.855655    -19.651857    -1.167575    -14.469133    21.350197    6.842413    -5.845093    1.442902    22.038424    0.000000    0.000000    0.000000    -11.442017    7.561121    -5.419572    7.856472    27.137411    1.045551    1.658184    -26.964617    -20.715263    0.000000    0.000000    0.000000    
-1.401119    155.386398    -29.807865    0.420185    -3.621063    -26.335703    2.156428    -0.746099    2.920643    -0.814362    0.576275    0.972447    10.808206    1.493438    11.136256    -4.545599    1.405234    9.536829    -1.653958    7.990896    -8.951519    -44.479366    18.710884    -36.971149    43.847416    -50.404186    -45.001308    -4.781350    -36.108231    -11.659862    -5.020146    7.221370    -2.590890    37.970249    12.968875    72.599480    3.887283    -10.999632    100.333359    8.315544    -14.594584    13.373015    14.853952    -19.654318    -1.153373    -14.467150    21.358252    6.839529    -5.843267    1.448992    22.024549    0.000000    0.000000    0.000000    -11.439573    7.558944    -5.438703    7.843533    27.144154    1.045317    1.662851    -26.959734    -20.709148    0.000000    0.000000    0.000000    
-1.405260    155.384689    -29.809135    0.417672    -3.624309    -26.336302    2.012648    -1.384748    2.799180    -0.217040    1.788577    0.927562    9.917847    1.036967    11.194191    -4.109256    1.223928    9.728038    -1.944084    7.471497    -8.704422    -43.987984    19.372656    -37.380325    44.436638    -50.706566    -44.363358    -4.555264    -36.535652    -11.399432    -5.989215    6.943965    -2.633451    38.067657    13.006862    73.259315    3.634315    -11.560340    100.098709    8.411567    -14.823874    13.388313    14.855414    -19.649261    -1.166674    -14.470165    21.355347    6.845347    -5.841734    1.443057    22.030287    0.000000    0.000000    0.000000    -11.435473    7.563331    -5.449482    7.831525    27.146727    1.061747    1.673406    -26.971897    -20.695976    0.000000    0.000000    0.000000    
-1.409611    155.383774    -29.806210    0.418822    -3.628949    -26.330042    2.144799    -0.747459    2.907894    -0.801876    0.582867    0.968230    10.816061    1.468205    11.128655    -4.523989    1.436310    9.529391    -1.633276    7.987495    -9.012096    -44.419418    19.057673    -37.164131    43.288105    -50.464367    -45.621700    -4.340412    -36.214355    -11.324426    -5.020432    7.225021    -2.582882    37.966511    12.982770    72.612450    3.887048    -11.002927    100.344154    8.282668    -14.601617    13.378238    14.859774    -19.646427    -1.195860    -14.499230    21.348267    6.859092    -5.842927    1.433650    22.058228    0.000000    0.000000    0.000000    -11.436688    7.570988    -5.450649    7.834787    27.144154    1.053242    1.671853    -26.972879    -20.713581    0.000000    0.000000    0.000000    
-1.409757    155.381851    -29.806608    0.422179    -3.631058    -26.321571    2.141240    -0.743338    2.895382    -0.798606    0.569807    0.963982    10.797825    1.475532    11.126900    -4.488796    1.429440    9.535013    -1.628175    7.989375    -9.042574    -44.384823    19.208817    -37.226635    42.940643    -50.505878    -46.020874    -4.344370    -36.256958    -11.204130    -5.023694    7.225292    -2.564398    37.985504    12.982819    72.599739    3.896917    -10.976754    100.352455    8.275214    -14.589821    13.365432    14.851188    -19.649633    -1.192892    -14.488913    21.348259    6.845872    -5.830364    1.447332    22.056778    0.000000    0.000000    0.000000    -11.439178    7.569540    -5.476944    7.823110    27.154175    1.069481    1.668080    -26.969166    -20.698730    0.000000    0.000000    0.000000    
